<svg width="222" height="202" viewBox="0 0 222 202" fill="none" xmlns="http://www.w3.org/2000/svg">
<path d="M129.26 80.1318C130.1 69.6818 130.55 59.0518 129.81 48.5918C129.25 40.6718 126.83 32.9518 123.35 25.8418C121.67 22.4118 119.73 19.1018 117.61 15.9218C115.79 13.1918 113.32 10.2418 114.37 6.73175C114.47 6.38175 114.6 6.03175 114.75 5.68175C115.2 4.63175 117.7 1.43175 116.48 0.391753C115.67 -0.668246 112.16 0.391754 106.57 3.95175C100.86 7.33175 94.6 11.9018 87.72 17.9918C80.93 23.7518 75.36 29.2018 71.48 34.0518C67.61 38.8918 66.15 41.8018 67.02 42.8218C67.67 43.5918 69.27 43.0618 70.04 42.7818C71.28 42.3318 72.39 41.6518 73.61 41.1518C75.57 40.3318 76.05 40.2418 77.4 40.1218C94.96 38.4918 92.08 76.7918 91.81 80.0318C91.8 80.1818 91.84 80.3118 91.94 80.4218C93.12 81.7818 101.13 90.9118 106.29 95.7418C104.51 96.7218 104.51 99.2818 106.29 100.252L106.53 100.382C106.77 100.512 103.97 133.332 103.97 133.332C103.97 133.332 107.89 133.582 109.89 133.582C112.16 133.582 116.61 133.272 116.61 133.272C116.61 133.272 112.71 100.492 112.92 100.382L113.16 100.252C114.94 99.2718 114.94 96.7118 113.16 95.7418C118.49 90.8518 127.86 81.6918 129.12 80.4618C129.21 80.3718 129.27 80.2518 129.28 80.1218L129.26 80.1318ZM111.66 87.5818L109.58 87.8018C109.64 84.0318 109.49 79.1818 108.72 73.6018C106.91 60.4618 102.71 50.9218 100.88 47.0718C98.56 42.2018 96.04 38.0618 93.67 34.6418C95.81 33.2318 97.95 31.8218 100.1 30.4118C103.49 36.2918 105.57 41.4718 106.85 45.2118C110.69 56.3918 111.27 65.8418 111.67 73.0418C112 79.0618 111.86 84.0718 111.67 87.5818H111.66ZM92.87 23.1218C80.8 33.5818 70.34 41.5818 69.38 40.5818C68.17 39.3318 76.36 29.7118 88.43 19.2618C100.5 8.80175 112.17 1.24175 113.08 2.29175C113.98 3.34175 104.94 12.6618 92.87 23.1218Z" fill="#17477E"/>
<path d="M83.3999 87.2817C83.3999 87.2817 62.2799 97.1317 47.8999 105.642C59.5899 119.552 76.0899 129.282 94.8399 132.252C92.0599 126.522 89.3499 119.772 87.2599 112.012C84.7199 102.602 83.4099 87.2817 83.4099 87.2817H83.3999Z" fill="#17477E"/>
<path d="M134.06 85.8218C134.56 92.7618 134.54 101.692 132.8 111.882C131.47 119.662 129.43 126.482 127.23 132.262C145.92 127.442 161.87 115.802 172.26 100.152C156.95 93.3318 134.05 85.8318 134.05 85.8318L134.06 85.8218Z" fill="#17477E"/>
<path d="M26.33 169.462C27.86 169.462 29.18 169.782 30.31 170.422C31.44 171.062 32.31 172.042 32.93 173.372C33.55 174.702 33.87 176.392 33.87 178.462V190.292H27.73V179.472C27.73 177.742 27.48 176.412 26.99 175.452C26.5 174.502 25.54 174.022 24.13 174.022C23.34 174.022 22.62 174.232 21.96 174.652C21.3 175.072 20.78 175.682 20.39 176.492C20 177.302 19.81 178.292 19.81 179.472V190.292H14.07V179.472C14.07 177.742 13.78 176.412 13.21 175.452C12.63 174.502 11.71 174.022 10.45 174.022C9.64 174.022 8.92 174.232 8.27 174.642C7.62 175.052 7.11 175.662 6.73 176.462C6.35 177.272 6.16 178.272 6.16 179.472V190.292H0V170.052H6.16V173.012C6.36 172.502 6.78 171.972 7.43 171.432C8.08 170.892 8.88 170.422 9.85 170.042C10.81 169.652 11.86 169.462 12.99 169.462C14.21 169.462 15.22 169.672 16.02 170.082C16.83 170.492 17.48 171.022 17.98 171.662C18.48 172.302 18.86 172.962 19.13 173.632C19.36 172.992 19.81 172.352 20.49 171.712C21.16 171.072 22.01 170.542 23.02 170.112C24.03 169.682 25.14 169.472 26.34 169.472L26.33 169.462Z" fill="#17477E"/>
<path d="M52.7701 190.292V186.742C52.6401 187.122 52.2701 187.642 51.6601 188.292C51.0501 188.952 50.2301 189.542 49.1901 190.082C48.1501 190.612 46.9501 190.882 45.5701 190.882C43.6501 190.882 41.9401 190.422 40.4401 189.492C38.9401 188.562 37.7701 187.292 36.9201 185.682C36.0701 184.072 35.6401 182.242 35.6401 180.182C35.6401 178.122 36.0701 176.292 36.9201 174.682C37.7701 173.072 38.9501 171.802 40.4401 170.862C41.9401 169.922 43.6401 169.462 45.5701 169.462C46.9201 169.462 48.0901 169.692 49.0901 170.142C50.0901 170.592 50.9001 171.122 51.5201 171.732C52.1401 172.342 52.5301 172.872 52.7201 173.332V170.052H58.8801V190.292H52.7701ZM41.7601 180.182C41.7601 181.312 42.0101 182.322 42.5201 183.192C43.0301 184.062 43.7001 184.732 44.5401 185.212C45.3801 185.692 46.2901 185.922 47.2801 185.922C48.3301 185.922 49.2601 185.682 50.0701 185.192C50.8801 184.712 51.5101 184.032 51.9801 183.162C52.4501 182.292 52.6801 181.302 52.6801 180.182C52.6801 179.062 52.4501 178.072 51.9801 177.202C51.5101 176.332 50.8701 175.652 50.0701 175.152C49.2601 174.662 48.3401 174.412 47.2801 174.412C46.2901 174.412 45.3801 174.652 44.5401 175.142C43.7001 175.622 43.0301 176.302 42.5201 177.172C42.0101 178.042 41.7601 179.042 41.7601 180.182Z" fill="#17477E"/>
<path d="M74.9599 169.462C76.3399 169.462 77.6899 169.742 78.9999 170.312C80.3099 170.882 81.3999 171.782 82.2399 173.012C83.0899 174.242 83.5099 175.852 83.5099 177.842V190.292H77.2699V178.902C77.2699 177.242 76.8799 176.012 76.0899 175.202C75.2999 174.402 74.2699 173.992 73.0099 173.992C72.1699 173.992 71.3799 174.222 70.6299 174.672C69.8799 175.122 69.2699 175.752 68.8099 176.562C68.3399 177.372 68.1099 178.282 68.1099 179.302V190.292H61.8999V170.052H68.1099V173.282C68.2699 172.722 68.6799 172.152 69.3299 171.552C69.9799 170.962 70.7999 170.462 71.7799 170.062C72.7699 169.662 73.8299 169.462 74.9599 169.462Z" fill="#17477E"/>
<path d="M102.59 190.292V186.742C102.33 187.332 101.84 187.952 101.14 188.592C100.43 189.232 99.57 189.772 98.54 190.222C97.51 190.662 96.39 190.892 95.18 190.892C93.26 190.892 91.57 190.432 90.11 189.502C88.66 188.572 87.52 187.302 86.71 185.692C85.9 184.082 85.49 182.252 85.49 180.192C85.49 178.132 85.9 176.302 86.71 174.692C87.52 173.082 88.66 171.812 90.11 170.872C91.56 169.932 93.25 169.472 95.18 169.472C96.54 169.472 97.76 169.692 98.82 170.142C99.88 170.582 100.73 171.112 101.37 171.722C102.01 172.332 102.4 172.872 102.53 173.352V156.392H108.77V190.312H102.61L102.59 190.292ZM92.33 183.192C92.81 184.062 93.46 184.732 94.26 185.212C95.06 185.692 95.96 185.922 96.95 185.922C98 185.922 98.95 185.682 99.78 185.192C100.62 184.712 101.28 184.032 101.78 183.162C102.27 182.292 102.52 181.302 102.52 180.182C102.52 179.062 102.27 178.072 101.78 177.202C101.29 176.332 100.62 175.652 99.78 175.152C98.94 174.662 98 174.412 96.95 174.412C95.96 174.412 95.07 174.652 94.26 175.142C93.45 175.622 92.81 176.302 92.33 177.172C91.84 178.042 91.6 179.042 91.6 180.182C91.6 181.322 91.84 182.322 92.33 183.192Z" fill="#17477E"/>
<path d="M127.22 190.292V186.742C127.09 187.122 126.72 187.642 126.11 188.292C125.5 188.952 124.68 189.542 123.64 190.082C122.6 190.612 121.4 190.882 120.02 190.882C118.1 190.882 116.39 190.422 114.89 189.492C113.39 188.562 112.22 187.292 111.37 185.682C110.52 184.072 110.09 182.242 110.09 180.182C110.09 178.122 110.52 176.292 111.37 174.682C112.22 173.072 113.4 171.802 114.89 170.862C116.39 169.922 118.09 169.462 120.02 169.462C121.37 169.462 122.54 169.692 123.54 170.142C124.54 170.592 125.35 171.122 125.97 171.732C126.59 172.342 126.98 172.872 127.17 173.332V170.052H133.33V190.292H127.22ZM116.2 180.182C116.2 181.312 116.45 182.322 116.96 183.192C117.47 184.062 118.14 184.732 118.98 185.212C119.82 185.692 120.73 185.922 121.72 185.922C122.77 185.922 123.7 185.682 124.51 185.192C125.32 184.712 125.95 184.032 126.42 183.162C126.89 182.292 127.12 181.302 127.12 180.182C127.12 179.062 126.89 178.072 126.42 177.202C125.95 176.332 125.31 175.652 124.51 175.152C123.7 174.662 122.78 174.412 121.72 174.412C120.73 174.412 119.82 174.652 118.98 175.142C118.14 175.622 117.47 176.302 116.96 177.172C116.45 178.042 116.2 179.042 116.2 180.182Z" fill="#17477E"/>
<path d="M142.8 190.292H136.56V156.372H142.8V190.292Z" fill="#17477E"/>
<path d="M145.98 201.132C144.65 201.132 143.55 200.992 142.68 200.722C141.81 200.452 141.16 200.172 140.73 199.892L142.75 195.262C143 195.442 143.26 195.582 143.55 195.692C143.84 195.802 144.21 195.852 144.67 195.852C145.21 195.852 145.66 195.692 146 195.362C146.34 195.032 146.59 194.562 146.74 193.962C146.89 193.352 146.96 192.632 146.96 191.792V170.052H153.17V192.902C153.17 194.482 152.93 195.892 152.44 197.142C151.95 198.392 151.19 199.372 150.14 200.072C149.09 200.782 147.7 201.132 145.97 201.132H145.98ZM150.17 164.802C149.15 164.802 148.28 164.442 147.57 163.722C146.86 163.002 146.5 162.132 146.5 161.132C146.5 160.472 146.66 159.862 146.99 159.312C147.32 158.752 147.76 158.302 148.32 157.952C148.88 157.612 149.49 157.432 150.17 157.432C150.85 157.432 151.46 157.602 152.02 157.942C152.58 158.282 153.02 158.732 153.35 159.282C153.68 159.842 153.84 160.452 153.84 161.132C153.84 162.132 153.48 163.002 152.77 163.722C152.06 164.442 151.19 164.802 150.17 164.802Z" fill="#17477E"/>
<path d="M172.79 190.292V186.742C172.66 187.122 172.29 187.642 171.68 188.292C171.07 188.952 170.25 189.542 169.21 190.082C168.17 190.612 166.97 190.882 165.59 190.882C163.67 190.882 161.96 190.422 160.46 189.492C158.96 188.562 157.79 187.292 156.94 185.682C156.09 184.072 155.66 182.242 155.66 180.182C155.66 178.122 156.09 176.292 156.94 174.682C157.79 173.072 158.97 171.802 160.46 170.862C161.96 169.922 163.66 169.462 165.59 169.462C166.94 169.462 168.11 169.692 169.11 170.142C170.11 170.592 170.92 171.122 171.54 171.732C172.16 172.342 172.55 172.872 172.74 173.332V170.052H178.9V190.292H172.79ZM161.78 180.182C161.78 181.312 162.03 182.322 162.54 183.192C163.05 184.062 163.72 184.732 164.56 185.212C165.4 185.692 166.31 185.922 167.3 185.922C168.35 185.922 169.28 185.682 170.09 185.192C170.9 184.712 171.53 184.032 172 183.162C172.47 182.292 172.7 181.302 172.7 180.182C172.7 179.062 172.47 178.072 172 177.202C171.53 176.332 170.89 175.652 170.09 175.152C169.28 174.662 168.36 174.412 167.3 174.412C166.31 174.412 165.4 174.652 164.56 175.142C163.72 175.622 163.05 176.302 162.54 177.172C162.03 178.042 161.78 179.042 161.78 180.182Z" fill="#17477E"/>
<path d="M181.45 170.052H200.55L189.65 185.852H199.86V190.292H179.92L190.82 174.462H181.45V170.052Z" fill="#17477E"/>
<path d="M202.08 170.052H221.18L210.28 185.852H220.49V190.292H200.55L211.45 174.462H202.08V170.052Z" fill="#17477E"/>
</svg>
