<svg width="222" height="202" viewBox="30 0 150 152" fill="none" xmlns="http://www.w3.org/2000/svg">
<path d="M128.45 80.1318C129.29 69.6818 129.74 59.0518 129 48.5918C128.44 40.6718 126.02 32.9518 122.54 25.8418C120.86 22.4118 118.92 19.1018 116.8 15.9218C114.98 13.1918 112.51 10.2418 113.56 6.73175C113.66 6.38175 113.79 6.03175 113.94 5.68175C114.39 4.63175 116.89 1.43175 115.67 0.391753C114.86 -0.668246 111.35 0.391754 105.76 3.95175C100.05 7.33175 93.7899 11.9018 86.9099 17.9918C80.1199 23.7518 74.5499 29.2018 70.6699 34.0518C66.7999 38.8918 65.3399 41.8018 66.2099 42.8218C66.8599 43.5918 68.4599 43.0618 69.2299 42.7818C70.4699 42.3318 71.5799 41.6518 72.7999 41.1518C74.7599 40.3318 75.2399 40.2418 76.5899 40.1218C94.1499 38.4918 91.2699 76.7918 90.9999 80.0318C90.9899 80.1818 91.0299 80.3118 91.1299 80.4218C92.3099 81.7818 100.32 90.9118 105.48 95.7418C103.7 96.7218 103.7 99.2818 105.48 100.252L105.72 100.382C105.96 100.512 103.16 133.332 103.16 133.332C103.16 133.332 107.08 133.582 109.08 133.582C111.35 133.582 115.8 133.272 115.8 133.272C115.8 133.272 111.9 100.492 112.11 100.382L112.35 100.252C114.13 99.2718 114.13 96.7118 112.35 95.7418C117.68 90.8518 127.05 81.6918 128.31 80.4618C128.4 80.3718 128.46 80.2518 128.47 80.1218L128.45 80.1318ZM110.85 87.5818L108.77 87.8018C108.83 84.0318 108.68 79.1818 107.91 73.6018C106.1 60.4618 101.9 50.9218 100.07 47.0718C97.7499 42.2018 95.2299 38.0618 92.8599 34.6418C94.9999 33.2318 97.1399 31.8218 99.2899 30.4118C102.68 36.2918 104.76 41.4718 106.04 45.2118C109.88 56.3918 110.46 65.8418 110.86 73.0418C111.19 79.0618 111.05 84.0718 110.86 87.5818H110.85ZM92.0599 23.1218C79.9899 33.5818 69.5299 41.5818 68.5699 40.5818C67.3599 39.3318 75.5499 29.7118 87.6199 19.2618C99.6899 8.80175 111.36 1.24175 112.27 2.29175C113.17 3.34175 104.13 12.6618 92.0599 23.1218Z" fill="#171717"/>
<path d="M83.3999 87.27C83.3999 87.27 62.2799 97.12 47.8999 105.63C59.5899 119.54 76.0899 129.27 94.8399 132.24C92.0599 126.51 89.3499 119.76 87.2599 112C84.7199 102.59 83.4099 87.27 83.4099 87.27H83.3999Z" fill="#171717"/>
<path d="M134.06 85.81C134.56 92.75 134.54 101.68 132.8 111.87C131.47 119.65 129.43 126.47 127.23 132.25C145.92 127.43 161.87 115.79 172.26 100.14C156.95 93.32 134.05 85.82 134.05 85.82L134.06 85.81Z" fill="#171717"/>
</svg>
