<svg width="222" height="202" viewBox="30 0 150 152" fill="none" xmlns="http://www.w3.org/2000/svg">
<path d="M129.26 80.1318C130.1 69.6818 130.55 59.0518 129.81 48.5918C129.25 40.6718 126.83 32.9518 123.35 25.8418C121.67 22.4118 119.73 19.1018 117.61 15.9218C115.79 13.1918 113.32 10.2418 114.37 6.73175C114.47 6.38175 114.6 6.03175 114.75 5.68175C115.2 4.63175 117.7 1.43175 116.48 0.391753C115.67 -0.668246 112.16 0.391754 106.57 3.95175C100.86 7.33175 94.6 11.9018 87.72 17.9918C80.93 23.7518 75.36 29.2018 71.48 34.0518C67.61 38.8918 66.15 41.8018 67.02 42.8218C67.67 43.5918 69.27 43.0618 70.04 42.7818C71.28 42.3318 72.39 41.6518 73.61 41.1518C75.57 40.3318 76.05 40.2418 77.4 40.1218C94.96 38.4918 92.08 76.7918 91.81 80.0318C91.8 80.1818 91.84 80.3118 91.94 80.4218C93.12 81.7818 101.13 90.9118 106.29 95.7418C104.51 96.7218 104.51 99.2818 106.29 100.252L106.53 100.382C106.77 100.512 103.97 133.332 103.97 133.332C103.97 133.332 107.89 133.582 109.89 133.582C112.16 133.582 116.61 133.272 116.61 133.272C116.61 133.272 112.71 100.492 112.92 100.382L113.16 100.252C114.94 99.2718 114.94 96.7118 113.16 95.7418C118.49 90.8518 127.86 81.6918 129.12 80.4618C129.21 80.3718 129.27 80.2518 129.28 80.1218L129.26 80.1318ZM111.66 87.5818L109.58 87.8018C109.64 84.0318 109.49 79.1818 108.72 73.6018C106.91 60.4618 102.71 50.9218 100.88 47.0718C98.56 42.2018 96.04 38.0618 93.67 34.6418C95.81 33.2318 97.95 31.8218 100.1 30.4118C103.49 36.2918 105.57 41.4718 106.85 45.2118C110.69 56.3918 111.27 65.8418 111.67 73.0418C112 79.0618 111.86 84.0718 111.67 87.5818H111.66ZM92.87 23.1218C80.8 33.5818 70.34 41.5818 69.38 40.5818C68.17 39.3318 76.36 29.7118 88.43 19.2618C100.5 8.80175 112.17 1.24175 113.08 2.29175C113.98 3.34175 104.94 12.6618 92.87 23.1218Z" fill="#17477E"/>
<path d="M83.3999 87.2817C83.3999 87.2817 62.2799 97.1317 47.8999 105.642C59.5899 119.552 76.0899 129.282 94.8399 132.252C92.0599 126.522 89.3499 119.772 87.2599 112.012C84.7199 102.602 83.4099 87.2817 83.4099 87.2817H83.3999Z" fill="#17477E"/>
<path d="M134.06 85.8218C134.56 92.7618 134.54 101.692 132.8 111.882C131.47 119.662 129.43 126.482 127.23 132.262C145.92 127.442 161.87 115.802 172.26 100.152C156.95 93.3318 134.05 85.8318 134.05 85.8318L134.06 85.8218Z" fill="#17477E"/>
</svg>
