<svg width="297" height="60" viewBox="0 0 297 60" fill="none" xmlns="http://www.w3.org/2000/svg">
<g clip-path="url(#clip0_99_635)">
<path d="M35.2983 17.5486C37.3495 17.5486 39.1191 17.9776 40.634 18.8356C42.1489 19.6936 43.3152 21.0074 44.1464 22.7904C44.9776 24.5734 45.4066 26.839 45.4066 29.6141V45.4736H37.1752V30.9681C37.1752 28.6489 36.84 26.8658 36.1831 25.5789C35.5262 24.3053 34.2393 23.6618 32.349 23.6618C31.2899 23.6618 30.3247 23.9433 29.4399 24.5064C28.5551 25.0694 27.8579 25.8872 27.3351 26.9731C26.8123 28.059 26.5575 29.3862 26.5575 30.9681V45.4736H18.8624V30.9681C18.8624 28.6489 18.4736 26.8658 17.7095 25.5789C16.9319 24.3053 15.6986 23.6618 14.0094 23.6618C12.9235 23.6618 11.9583 23.9433 11.0869 24.493C10.2155 25.0426 9.53176 25.8604 9.02233 26.9329C8.51289 28.0188 8.25818 29.3594 8.25818 30.9681V45.4736H0V18.3395H8.25818V22.3078C8.5263 21.624 9.08936 20.9135 9.96075 20.1896C10.8322 19.4657 11.9046 18.8356 13.205 18.3261C14.492 17.8033 15.8997 17.5486 17.4146 17.5486C19.0501 17.5486 20.4041 17.8301 21.4766 18.3798C22.5625 18.9294 23.4339 19.6399 24.1042 20.4979C24.7745 21.3559 25.284 22.2407 25.6459 23.1389C25.9543 22.2809 26.5575 21.423 27.4692 20.565C28.3674 19.707 29.5069 18.9964 30.8609 18.42C32.2149 17.8435 33.703 17.562 35.3117 17.562L35.2983 17.5486Z" fill="#FFF6F2"/>
<path d="M70.7442 45.4736V40.7144C70.57 41.2238 70.0739 41.9209 69.2562 42.7923C68.4384 43.6771 67.3391 44.4681 65.9448 45.192C64.5506 45.9025 62.9419 46.2645 61.0918 46.2645C58.5179 46.2645 56.2254 45.6478 54.2145 44.4011C52.2036 43.1543 50.635 41.4517 49.4955 39.2933C48.356 37.1349 47.7795 34.6816 47.7795 31.92C47.7795 29.1583 48.356 26.705 49.4955 24.5466C50.635 22.3882 52.217 20.6856 54.2145 19.4254C56.2254 18.1653 58.5044 17.5486 61.0918 17.5486C62.9017 17.5486 64.4702 17.8569 65.8108 18.4602C67.1514 19.0635 68.2373 19.774 69.0685 20.5918C69.8997 21.4095 70.4225 22.1201 70.6772 22.7368V18.3395H78.9354V45.4736H70.7442ZM55.9841 31.92C55.9841 33.4348 56.3192 34.7889 57.003 35.9552C57.6867 37.1215 58.5849 38.0197 59.711 38.6632C60.8371 39.3067 62.0571 39.6151 63.3843 39.6151C64.7919 39.6151 66.0387 39.2933 67.1246 38.6364C68.2105 37.9929 69.0551 37.0813 69.6852 35.915C70.3152 34.7486 70.6236 33.4214 70.6236 31.92C70.6236 30.4185 70.3152 29.0913 69.6852 27.9249C69.0551 26.7586 68.1971 25.847 67.1246 25.1767C66.0387 24.5198 64.8053 24.1846 63.3843 24.1846C62.0571 24.1846 60.8371 24.5064 59.711 25.1633C58.5849 25.8068 57.6867 26.7184 57.003 27.8847C56.3192 29.051 55.9841 30.3917 55.9841 31.92Z" fill="#FFF6F2"/>
<path d="M100.492 17.5486C102.342 17.5486 104.152 17.924 105.908 18.6881C107.665 19.4523 109.126 20.6588 110.252 22.3078C111.391 23.9567 111.955 26.1151 111.955 28.7829V45.4736H103.589V30.204C103.589 27.9786 103.066 26.3296 102.007 25.2437C100.948 24.1712 99.5673 23.6216 97.8781 23.6216C96.752 23.6216 95.6929 23.9299 94.6874 24.5332C93.682 25.1365 92.8642 25.981 92.2475 27.0669C91.6174 28.1528 91.3091 29.3728 91.3091 30.7402V45.4736H82.9839V18.3395H91.3091V22.6697C91.5236 21.919 92.0732 21.1548 92.9446 20.3505C93.816 19.5595 94.9153 18.8892 96.2291 18.353C97.5563 17.8167 98.9774 17.5486 100.492 17.5486Z" fill="#FFF6F2"/>
<path d="M137.534 45.4736V40.7144C137.185 41.5054 136.528 42.3366 135.59 43.1946C134.638 44.0525 133.485 44.7765 132.104 45.3797C130.723 45.9696 129.222 46.278 127.6 46.278C125.026 46.278 122.76 45.6613 120.803 44.4145C118.859 43.1677 117.331 41.4652 116.245 39.3068C115.159 37.1484 114.609 34.6951 114.609 31.9334C114.609 29.1717 115.159 26.7184 116.245 24.56C117.331 22.4016 118.859 20.6991 120.803 19.4389C122.747 18.1787 125.012 17.562 127.6 17.562C129.423 17.562 131.058 17.857 132.48 18.4602C133.901 19.0501 135.04 19.7606 135.898 20.5784C136.756 21.3962 137.279 22.1201 137.453 22.7636V0H145.819V45.4736H137.56H137.534ZM123.779 35.9552C124.422 37.1216 125.294 38.0198 126.366 38.6633C127.439 39.3068 128.645 39.6151 129.973 39.6151C131.38 39.6151 132.654 39.2934 133.766 38.6365C134.893 37.993 135.777 37.0814 136.448 35.915C137.105 34.7487 137.44 33.4215 137.44 31.92C137.44 30.4185 137.105 29.0913 136.448 27.925C135.791 26.7586 134.893 25.847 133.766 25.1767C132.64 24.5198 131.38 24.1847 129.973 24.1847C128.645 24.1847 127.452 24.5064 126.366 25.1633C125.28 25.8068 124.422 26.7184 123.779 27.8847C123.122 29.0511 122.8 30.3917 122.8 31.92C122.8 33.4483 123.122 34.7889 123.779 35.9552Z" fill="#FFF6F2"/>
<path d="M170.553 45.4736V40.7144C170.379 41.2238 169.883 41.9209 169.065 42.7923C168.247 43.6771 167.148 44.4681 165.753 45.192C164.359 45.9025 162.75 46.2645 160.9 46.2645C158.326 46.2645 156.034 45.6478 154.023 44.4011C152.012 43.1543 150.444 41.4517 149.304 39.2933C148.165 37.1349 147.588 34.6816 147.588 31.92C147.588 29.1583 148.165 26.705 149.304 24.5466C150.444 22.3882 152.026 20.6856 154.023 19.4254C156.034 18.1653 158.313 17.5486 160.9 17.5486C162.71 17.5486 164.279 17.8569 165.619 18.4602C166.96 19.0635 168.046 19.774 168.877 20.5918C169.708 21.4095 170.231 22.1201 170.486 22.7368V18.3395H178.744V45.4736H170.553ZM155.779 31.92C155.779 33.4348 156.114 34.7889 156.798 35.9552C157.482 37.1215 158.38 38.0197 159.506 38.6632C160.632 39.3067 161.852 39.6151 163.179 39.6151C164.587 39.6151 165.834 39.2933 166.92 38.6364C168.006 37.9929 168.85 37.0813 169.48 35.915C170.11 34.7486 170.419 33.4214 170.419 31.92C170.419 30.4185 170.11 29.0913 169.48 27.9249C168.85 26.7586 167.992 25.847 166.92 25.1767C165.834 24.5198 164.601 24.1846 163.179 24.1846C161.852 24.1846 160.632 24.5064 159.506 25.1633C158.38 25.8068 157.482 26.7184 156.798 27.8847C156.114 29.051 155.779 30.3917 155.779 31.92Z" fill="#FFF6F2"/>
<path d="M191.44 45.4736H183.074V0H191.44V45.4736Z" fill="#FFF6F2"/>
<path d="M195.703 60.0058C193.92 60.0058 192.445 59.8181 191.279 59.4562C190.112 59.0942 189.241 58.7188 188.665 58.3435L191.373 52.1364C191.708 52.3777 192.056 52.5654 192.445 52.7129C192.834 52.8603 193.33 52.9274 193.947 52.9274C194.671 52.9274 195.274 52.7129 195.73 52.2705C196.185 51.8281 196.521 51.198 196.722 50.3936C196.923 49.5758 197.017 48.6106 197.017 47.4845V18.3396H205.342V48.9726C205.342 51.0907 205.02 52.981 204.363 54.6568C203.706 56.3325 202.687 57.6463 201.28 58.5848C199.872 59.5366 198.009 60.0058 195.689 60.0058H195.703ZM201.32 11.3013C199.953 11.3013 198.786 10.8187 197.834 9.85348C196.883 8.88824 196.4 7.7219 196.4 6.38129C196.4 5.49648 196.614 4.67871 197.057 3.94137C197.499 3.19063 198.089 2.58735 198.84 2.11814C199.591 1.66233 200.408 1.42102 201.32 1.42102C202.232 1.42102 203.049 1.64892 203.8 2.10473C204.551 2.56054 205.141 3.16382 205.583 3.90115C206.026 4.6519 206.24 5.46967 206.24 6.38129C206.24 7.7219 205.757 8.88824 204.806 9.85348C203.854 10.8187 202.687 11.3013 201.32 11.3013Z" fill="#FFF6F2"/>
<path d="M231.645 45.4736V40.7144C231.47 41.2238 230.974 41.9209 230.157 42.7923C229.339 43.6771 228.239 44.4681 226.845 45.192C225.451 45.9025 223.842 46.2645 221.992 46.2645C219.418 46.2645 217.126 45.6478 215.115 44.4011C213.104 43.1543 211.535 41.4517 210.396 39.2933C209.256 37.1349 208.68 34.6816 208.68 31.92C208.68 29.1583 209.256 26.705 210.396 24.5466C211.535 22.3882 213.117 20.6856 215.115 19.4254C217.126 18.1653 219.405 17.5486 221.992 17.5486C223.802 17.5486 225.371 17.8569 226.711 18.4602C228.052 19.0635 229.138 19.774 229.969 20.5918C230.8 21.4095 231.323 22.1201 231.578 22.7368V18.3395H239.836V45.4736H231.645ZM216.884 31.92C216.884 33.4348 217.22 34.7889 217.903 35.9552C218.587 37.1215 219.485 38.0197 220.611 38.6632C221.737 39.3067 222.957 39.6151 224.285 39.6151C225.692 39.6151 226.939 39.2933 228.025 38.6364C229.111 37.9929 229.955 37.0813 230.586 35.915C231.216 34.7486 231.524 33.4214 231.524 31.92C231.524 30.4185 231.216 29.0913 230.586 27.9249C229.955 26.7586 229.097 25.847 228.025 25.1767C226.939 24.5198 225.706 24.1846 224.285 24.1846C222.957 24.1846 221.737 24.5064 220.611 25.1633C219.485 25.8068 218.587 26.7184 217.903 27.8847C217.22 29.051 216.884 30.3917 216.884 31.92Z" fill="#FFF6F2"/>
<path d="M243.254 18.3396H268.86L254.247 39.5213H267.935V45.4736H241.203L255.816 24.2517H243.254V18.3396Z" fill="#FFF6F2"/>
<path d="M270.911 18.3396H296.517L281.904 39.5213H295.592V45.4736H268.86L283.473 24.2517H270.911V18.3396Z" fill="#FFF6F2"/>
</g>
<defs>
<clipPath id="clip0_99_635">
<rect width="296.517" height="60.0058" fill="white"/>
</clipPath>
</defs>
</svg>
