<svg id="logo_svg__Layer_1" xmlns="http://www.w3.org/2000/svg" x="0" y="0" width="198" height="40"
    viewBox="0 0 826.1 158" style="--icon-size:auto" xml:space="preserve" title="Logo"
    aria-label="Logo" class="Standard_logoSvg__MjR5L"><style>.logo_svg__st1{fill:#3c3c3b}</style><path d="M0 0v158h165.4V0H0zm149.9 44.1c-.8 2.7-1.9 5.3-2.9 8.1-.8 2.2-2 4.2-3.2 6.3-1.2 2-4.5 6.2-4.5 6.2s-3.6 4.7-5.5 6.9c-2.7 3.2-4.5 5.9-7 8.8-1.3 1.5-4.4 5-4.4 5-1.4 1.3-2.9 2.5-4.6 3.4-.7.4-3.5-1.3-4.8-2.7-.8-.8.7-1.9 1.4-2.6 1.3-1.2 3.5-3 3.5-3s2.7-3.7 4-5.3c.1-4.2-1.7-8.5-3-11.7-.8-2-1.8-3.5-3.5-4.8-1.6-1.3-4.8-2.8-4.8-2.8s-3.1-.8-5-1.1c-2.7-.5-6.2.4-7.9.6-7.1.8-5.5.9-9.2 1.4.1 2 .3 4.5.4 7.4.1 1.5-.2 3.3-.1 4.7.1 1.5.4 3.9.4 3.9s.6 3.9 1.4 5.7c1.3 3.1 4.7 7.2 8.4 10.2 2.1 1.7 3.9 3.7 5.4 5.3 3.4 3.7 9.4 12.8 9.4 12.8s3.7 9.2 5.3 13.7c.5 1.3 1.7 4.7 1.7 4.7s1.6 3.7 2 5.6c1 4.5 1 9-2.4 10-1.6.5-2 .6-4.2.2-1.2-.2-3.6-4.9-4-6.8-.4-1.9-2-9.4-2-9.4s-2.7-7.6-3.7-9.4c-1.8-3.4-4.1-6.3-6.3-9.5-1.8-2.6-6.3-7.2-6.3-7.2s-5.3-3.7-8-5.5c-2.9-2-5.9-2.4-9-1.5-1.2.3-2.4.8-4 1.2-2 .5-3.2 2.6-4.9 4.1-2.4 2.1-6.6 6.8-6.6 6.8s-5 7-6.1 9.7c-1.8 4.4-3.9 8.7-4.8 13.5-1 5-2.6 13.8-9.5 9.2-1.4-.9-1.1-4.1-.9-6.2.5-4 2.2-8.7 2.6-11.6.6-4.6 4.6-11.6 4.6-11.6s2.4-5.4 4.3-7.9c1.9-2.6 7-7.8 7-7.8s3.6-2.9 5.4-4.7c1.9-1.9 2.6-8.8 2.6-8.8s.5-5.8.2-8.2c-.2-1.4-.8-7.5-.8-7.5s-.7-5.5-.8-6.6c-1.4.1-2.8.2-5 0-1.9-.2-6.5-.6-6.5-.6s-5.5.5-8.1.7c-2.3.2-6.4 1.5-6.4 1.5s-3.4.4-4.2.8c.2 1.3 1.1 4.1 1.1 4.1l1 6.5c.5 3.5.3 4.6-2 5.1-3.9.8-3.6.6-4.5-2.9-.5-1.9-1.6-4.5-2.2-7.5-.6-2.7-1.3-8.3-1.3-8.3l-1.7-8.8s-1-3.6-1.8-7.1c-.4-1.4-1.6-1.1-2.9-1-4.3.6-5.4-.9-5.4-.9l-.5-3.7s-.8-2.5-.8-3.7c0-1.5.3-2.8 3.8-3.3 3.9-.6 10.1-.4 13.7-.9s5.7-1.5 6.9-1.1c1 .4 1 1.9 1.4 3.7.2.7.8 3.1.8 3.1l.3 2.7c-1.2.2-2.4.8-3.5 1-1.5.4-2.9.5-4 .7-1.7.3-1.7 2-1.7 2.8 0 2.3 1.1 6 2.2 10.5 2.3.2 7.9-1.1 9.9-1.1 3.2-.2 14-1.6 14-1.6l9.9-.3c2.3-.4 2-1.9 2-3.6 0-1.6-1.3-3.6-1.3-3.6s-1.3-1.5-2.1-2.1c-3.3-2.8-2-12.6.7-15.6.7-.8 2.6-2 3.3-2.5 2-1.4 3.2-1.5 5.2-1.5 4.1 0 7.5 1.3 9.3 3.7 2.1 2.8 3.6 5.9 3.6 8.2 0 4.2-.7 5.7-3.3 8.7-2 2.4-2.3 3.2-2.3 6 0 1.1 1 1.6 1.9 1.7 1.5.2 3.1-.2 4.8-.3s3.4.1 5.1.1c3.5 0 6.9.7 9.9 1 4.5.4 10.4 1.4 12.5 3.1 2 1.7 3.7 3.2 4.9 4.8 1.1 1.5 2.2 2.9 3.2 4.4 2.2 3.1 2.3 6.5 3.3 9.8 1.8-1.6 5.5-6.9 7.1-10 1.2-2.2 2.9-3.9 2.4-4.2-1.8-1.1-4.1-1.2-6.1-2.4-1-.6.5-2.2 2.8-5.3.4-.6 1.1-2.3 1.5-2.9 1.2-2.3 4.7-5.6 4.7-5.6s3.7-2.1 5.3-2.1c3.2.1 5.4 2.6 3.8 8.6z" style="fill:#e73331"></path><path class="logo_svg__st1" d="M209.8 28.6h27.9l20 42.7c2.4 5.1 3.9 10 4.9 17.3h.4c0-6.4-.1-13.6-.1-20.2V28.6h23.8V127h-25.8L239 81.3c-2.8-5.8-4.3-11.2-5-17.3h-.3c0 4.9.1 13.3.1 20.1v43h-24V28.6zM362 107.9V127h-60.7V28.6H361v19.1h-33.5v19.4H359V86h-31.5v21.9H362zM398.3 28.6v67.5c0 7.6 4 12.1 11 12.1s11.1-4.4 11.1-12.1V28.6h26.1v68.5c0 20.1-13.7 32.3-37.2 32.3s-37.2-12.2-37.2-32.3V28.6h26.2zM460 28.6h34.8l10 46.7c1.1 4.9 1.8 10.5 1.9 13.9h.4c.1-3.3 1-9 1.9-14l9.4-46.6h35.1V127h-23V74c0-6.2 0-12.8.4-19h-.4c-.4 3.6-1 7.5-1.7 10.7L516.1 127h-19.3l-13.4-61.3c-.7-3.3-1.4-7.2-1.7-10.5h-.4c.4 6 .6 12.5.6 18.9v53H460V28.6zM618.4 106.9h-25.5l-4.4 20.1h-26.1l27-98.4H622l27 98.4h-26.2l-4.4-20.1zm-4-18-5.5-25.4c-1.1-4.9-2.2-9.6-3-15.4h-.3c-.7 5.8-1.9 10.5-3 15.4l-5.5 25.4h17.3zM657.8 28.6h27.9l20 42.7c2.4 5.1 3.9 10 4.9 17.3h.4c0-6.4-.1-13.6-.1-20.2V28.6h23.8V127h-25.8L687 81.3c-2.8-5.8-4.3-11.2-5-17.3h-.3c0 4.9.1 13.3.1 20.1v43h-24V28.6zM749.3 28.6h27.9l20 42.7c2.4 5.1 3.9 10 4.9 17.3h.4c0-6.4-.1-13.6-.1-20.2V28.6h23.8V127h-25.8l-21.9-45.7c-2.8-5.8-4.3-11.2-5-17.3h-.3c0 4.9.1 13.3.1 20.1v43h-24V28.6z"></path></svg>