<?xml version="1.0" encoding="UTF-8" standalone="no"?><!DOCTYPE svg PUBLIC "-//W3C//DTD SVG 1.1//EN" "http://www.w3.org/Graphics/SVG/1.1/DTD/svg11.dtd"><svg width="100%" height="100%" viewBox="0 0 1167 313" version="1.1" xmlns="http://www.w3.org/2000/svg" xmlns:xlink="http://www.w3.org/1999/xlink" xml:space="preserve" xmlns:serif="http://www.serif.com/" style="fill-rule:evenodd;clip-rule:evenodd;stroke-linejoin:round;stroke-miterlimit:2;"><rect id="neg_logo_header_styringsgruppen" x="0" y="0" width="1166.67" height="312.5" style="fill:none;"/><g><path d="M790,232.119l-0,11.924c-0.993,-0.004 -2.088,-0.004 -3.281,-0.004l-11.079,-0l-0,17.842l10.503,-0c1.394,-0 2.678,-0.004 3.857,-0.023l-0,15.045l-0.053,-0.053c-1.342,-1.424 -2.766,-2.394 -4.274,-2.936c-1.508,-0.519 -3.887,-0.784 -7.165,-0.784l-2.868,-0l-0,29.397l-14.231,0l0,-70.408l28.591,0Zm-72.371,44.523l-0,-11.871l30.64,0l0,28.049c-2.985,2.888 -7.297,5.43 -12.954,7.62c-5.653,2.182 -11.378,3.281 -17.163,3.281c-7.362,-0 -13.788,-1.542 -19.259,-4.619c-5.475,-3.11 -9.59,-7.513 -12.344,-13.261c-2.755,-5.763 -4.134,-12.003 -4.134,-18.758c0,-7.324 1.542,-13.856 4.607,-19.562c3.081,-5.683 7.574,-10.056 13.508,-13.094c4.512,-2.346 10.131,-3.501 16.852,-3.501c8.738,-0 15.573,1.83 20.475,5.486c4.918,3.675 8.082,8.733 9.492,15.208l-14.114,2.645c-1.004,-3.463 -2.872,-6.199 -5.607,-8.195c-2.74,-2.008 -6.146,-3.001 -10.246,-3.001c-6.213,-0 -11.146,1.966 -14.818,5.899c-3.671,3.952 -5.494,9.787 -5.494,17.543c0,8.335 1.857,14.625 5.578,18.804c3.701,4.179 8.57,6.259 14.583,6.259c2.989,-0 5.971,-0.595 8.972,-1.754c2.986,-1.16 5.554,-2.592 7.703,-4.248l-0,-8.93l-16.277,-0Zm114.681,-44.523l14.216,0l-0,38.127c-0,6.047 0.178,9.984 0.523,11.769c0.602,2.891 2.068,5.198 4.342,6.929c2.296,1.758 5.425,2.63 9.392,2.63c4.032,-0 7.082,-0.822 9.128,-2.478c2.049,-1.641 3.285,-3.675 3.69,-6.066c0.428,-2.406 0.621,-6.388 0.621,-11.965l0,-38.946l14.216,0l0,36.983c0,8.453 -0.379,14.421 -1.148,17.914c-0.773,3.493 -2.178,6.433 -4.247,8.836c-2.069,2.398 -4.835,4.311 -8.279,5.74c-3.459,1.424 -7.979,2.129 -13.553,2.129c-6.721,-0 -11.817,-0.773 -15.295,-2.33c-3.478,-1.554 -6.214,-3.577 -8.23,-6.047c-2.019,-2.471 -3.345,-5.085 -3.986,-7.801c-0.932,-4.036 -1.39,-9.988 -1.39,-17.876l-0,-37.548Zm-42.31,44.784l-0,-15.045c4.599,-0.102 7.577,-0.364 8.934,-0.822c1.686,-0.576 3.012,-1.573 3.982,-2.99c0.951,-1.405 1.444,-3.163 1.444,-5.27c-0,-2.383 -0.645,-4.281 -1.899,-5.736c-1.265,-1.455 -3.05,-2.38 -5.365,-2.781c-0.909,-0.114 -3.273,-0.19 -7.096,-0.216l-0,-11.924l1.345,0c7.524,0 12.98,0.637 16.39,1.902c3.41,1.262 6.15,3.501 8.2,6.737c2.046,3.243 3.061,6.93 3.061,11.093c-0,5.278 -1.55,9.666 -4.653,13.102c-3.099,3.422 -7.756,5.604 -13.931,6.487c3.08,1.803 5.622,3.774 7.623,5.918c1.996,2.148 4.687,5.956 8.078,11.431l8.608,13.738l-17.001,0l-10.275,-15.337c-3.615,-5.407 -6.093,-8.832 -7.445,-10.287m140.18,-44.754l0,11.973c-1.572,-0.06 -3.455,-0.083 -5.664,-0.083l-6.87,-0l0,19.96l7.771,-0c1.774,-0 3.361,-0.035 4.763,-0.107l0,12.038c-1.042,0.022 -2.133,0.038 -3.27,0.038l-9.264,-0l0,26.559l-14.212,0l0,-70.408l22.806,0c1.39,0 2.705,0.008 3.94,0.03m0,43.781l0,-12.038c3.031,-0.159 5.198,-0.484 6.483,-0.981c1.887,-0.742 3.361,-1.902 4.44,-3.463c1.069,-1.576 1.614,-3.395 1.614,-5.479c0,-2.553 -0.761,-4.675 -2.265,-6.342c-1.493,-1.66 -3.41,-2.709 -5.706,-3.115c-0.97,-0.185 -2.493,-0.314 -4.566,-0.39l0,-11.973c6.437,0.091 10.76,0.44 12.954,1.039c4.035,1.045 7.434,3.341 10.151,6.884c2.72,3.535 4.084,8.108 4.084,13.7c-0,4.327 -0.788,7.965 -2.361,10.905c-1.576,2.948 -3.557,5.259 -5.986,6.949c-2.406,1.67 -4.869,2.784 -7.362,3.33c-2.788,0.546 -6.619,0.883 -11.48,0.974m65.604,-43.781l0,11.973c-1.572,-0.06 -3.455,-0.083 -5.66,-0.083l-6.873,-0l-0,19.96l7.771,-0c1.773,-0 3.36,-0.035 4.762,-0.107l0,12.038c-1.042,0.022 -2.129,0.038 -3.266,0.038l-9.267,-0l-0,26.559l-14.212,0l-0,-70.408l22.805,0c1.39,0 2.705,0.008 3.94,0.03m104.595,70.378l0,-70.408l13.837,0l28.818,47.016l0,-47.016l13.216,0l0,70.408l-14.28,0l-28.375,-45.917l0,45.917l-13.216,0Zm-65.732,0l-0,-70.408l52.195,0l-0,11.92l-37.987,-0l-0,15.606l35.346,0l0,11.848l-35.346,-0l-0,19.16l39.328,0l0,11.874l-53.536,0Zm-38.863,-26.597l0,-12.038c3.031,-0.159 5.198,-0.484 6.483,-0.981c1.883,-0.742 3.364,-1.902 4.444,-3.463c1.065,-1.576 1.611,-3.395 1.611,-5.479c-0,-2.553 -0.762,-4.675 -2.266,-6.342c-1.489,-1.66 -3.41,-2.709 -5.706,-3.115c-0.97,-0.185 -2.49,-0.314 -4.566,-0.39l0,-11.973c6.437,0.091 10.757,0.44 12.962,1.039c4.035,1.045 7.422,3.341 10.146,6.884c2.721,3.535 4.081,8.108 4.081,13.7c0,4.327 -0.788,7.965 -2.36,10.905c-1.573,2.948 -3.558,5.259 -5.987,6.949c-2.406,1.67 -4.865,2.784 -7.358,3.33c-2.796,0.546 -6.623,0.883 -11.484,0.974" style="fill:#a9a3a2;"/><g><path d="M794.149,61.287c5.43,0 9.942,4.494 9.942,9.927c0,5.479 -4.455,9.938 -9.934,9.938l-19.892,0.027l-30.651,-0c-15.311,-0 -27.28,7.047 -35.934,21.111c-1.508,2.956 -2.72,6.036 -3.539,9.249l88.754,-0c5.051,-0 8.521,2.262 10.363,6.82l0.394,2.493l-0,2.292c-0,14.102 -5.414,27.352 -16.235,39.776c-12.883,12.689 -27.015,19.012 -42.458,19.012l-52.616,0l-0.201,-0.004c-5.388,-0.109 -9.726,-4.508 -9.726,-9.919c-0,-5.482 4.448,-9.927 9.927,-9.927l0.898,-0.015l49.816,0c15.284,0 27.276,-7.051 35.907,-21.149c1.606,-3.016 2.784,-6.131 3.569,-9.309l-88.758,-0c-5.077,-0 -8.518,-2.262 -10.389,-6.722l-0.398,-2.489l-0,-2.436c-0,-13.996 5.448,-27.242 16.266,-39.666c12.92,-12.662 27.116,-19.024 42.526,-19.024l52.369,0.015Z" style="fill:#014574;"/><path d="M122.146,61.287c5.43,0 9.946,4.494 9.946,9.927c0,5.479 -4.456,9.938 -9.938,9.938l-19.888,0.027l-30.652,-0c-15.31,-0 -27.276,7.047 -35.933,21.111c-1.512,2.956 -2.724,6.036 -3.543,9.249l88.758,-0c5.051,-0 8.525,2.262 10.359,6.82l0.398,2.493l-0,2.292c-0,14.102 -5.411,27.352 -16.236,39.776c-12.882,12.689 -27.014,19.012 -42.458,19.012l-52.619,0l-0.201,-0.004c-5.384,-0.109 -9.722,-4.508 -9.722,-9.919c-0,-5.482 4.448,-9.927 9.923,-9.927l0.898,-0.015l49.816,0c15.284,0 27.283,-7.051 35.907,-21.149c1.61,-3.016 2.788,-6.131 3.576,-9.309l-88.761,-0c-5.081,-0 -8.521,-2.262 -10.393,-6.722l-0.394,-2.489l-0,-2.436c-0,-13.996 5.441,-27.242 16.262,-39.666c12.923,-12.662 27.116,-19.024 42.526,-19.024l52.369,0.015Z" style="fill:#014574;"/><path d="M205.535,81.064l-39.897,-0.03l-0,40.525c-0,14.095 6.399,25.575 19.213,34.487c6.313,3.751 13.913,5.228 21.763,6.013c5.953,0.591 9.431,5.164 9.48,9.991c0.053,4.971 -3.489,10.089 -9.582,9.877l-1.466,-0.049l-1.175,-0.091c-13.321,-1.049 -26.359,-5.346 -38.915,-16.027c-12.791,-12.95 -19.217,-27.181 -19.217,-42.765l0.03,-104.212c0,-5.483 4.445,-9.935 9.923,-9.935c5.483,0 9.923,4.452 9.923,9.935l0.023,42.151l39.897,0.03c5.547,0 10.052,4.505 10.052,10.048c-0,5.555 -4.505,10.052 -10.052,10.052" style="fill:#014574;"/><path d="M316.07,70.571c-0.231,-5.278 -4.584,-9.491 -9.919,-9.491c-5.316,-0 -9.673,4.236 -9.931,9.483l-0.197,38.889l0,50.748c0.076,0.129 -2.595,-0.03 -3.914,-0.026c-16.989,-0 -29.64,-7.408 -38.036,-22.199c-2.952,-5.801 -4.425,-11.962 -4.425,-18.418l-0.027,-48.971c-0.227,-5.278 -4.584,-9.491 -9.912,-9.491c-5.346,-0 -9.699,4.221 -9.926,9.506l-0.038,50.49c-0,14.527 5.706,28.034 17.114,40.53c7.741,7.248 14.727,11.87 20.952,13.939c7.279,2.815 13.97,4.221 20.066,4.221l2.982,-0c0.602,0.015 4.115,-0.14 4.096,-0.049c-0,-0 -0.004,0.011 -0.008,0.011c-2.277,9.34 -8.233,18.266 -18.137,24.828c-6.483,4.282 -14.511,4.593 -23.23,5.862c-5.384,1.034 -8.907,6.24 -7.865,11.62c1.042,5.377 6.16,8.169 11.628,7.87c13.359,-0.747 26.814,-4.96 39.37,-15.645c12.787,-12.95 19.217,-27.185 19.217,-42.749l0.14,-100.958Z" style="fill:#014574;"/><path d="M349.572,172.008c0,5.479 -4.448,9.923 -9.923,9.923c-5.482,0 -9.926,-4.425 -9.926,-9.904l-0,-52.339c-0,-14.523 5.33,-28.386 17.114,-40.526c7.381,-7.616 14.78,-11.708 20.948,-13.939c7.665,-2.77 15.019,-4.232 23.124,-4.232c5.482,-0 9.927,4.444 9.927,9.926c-0,5.483 -4.623,9.215 -9.927,9.927c-16.357,2.08 -28.83,7.373 -36.858,21.949c-3.145,5.714 -4.429,11.981 -4.429,18.437c-0,17.349 -0.05,33.433 -0.05,50.778" style="fill:#014574;"/><path d="M434.342,172.008l0,-101.189c0,-5.475 -4.444,-9.919 -9.926,-9.919c-5.483,-0 -9.931,4.444 -9.931,9.919l0,101.189c0,5.479 4.448,9.923 9.931,9.923c5.482,0 9.926,-4.444 9.926,-9.923" style="fill:#014574;"/><path d="M434.342,45.436l0,-26.726c0,-5.487 -4.444,-9.931 -9.926,-9.931c-5.483,0 -9.931,4.444 -9.931,9.931l0,26.726c0,5.483 4.448,9.927 9.931,9.927c5.482,0 9.926,-4.444 9.926,-9.927" style="fill:#014574;"/><path d="M568.662,119.756l0,52.252c0,5.479 -4.444,9.923 -9.923,9.923c-5.479,0 -9.923,-4.444 -9.923,-9.923l0,-31.573l-0.015,-18.751c-0,-14.719 -6.392,-26.639 -19.611,-35.047c-6.324,-4.023 -13.508,-5.671 -21.119,-5.671c-13.144,-0 -24.382,5.577 -32.948,17.281c-5.077,6.929 -7.214,14.916 -7.214,23.437l-0.065,21.472l0,28.852c0,5.479 -4.448,9.923 -9.927,9.923c-5.478,0 -9.926,-4.444 -9.926,-9.923l-0,-42.958l0.015,-9.294c-0,-14.004 4.941,-27.712 16.258,-39.681c12.435,-13.136 27.121,-19.012 42.534,-19.012l3.178,-0c14.031,-0 27.689,4.918 39.677,16.227c13.148,12.416 19.009,27.053 19.009,42.466" style="fill:#014574;"/><path d="M625.515,176.97c-1.648,-0.512 -3.319,-1.088 -5.027,-1.747c-6.229,-2.065 -13.212,-6.668 -20.953,-13.886c-11.412,-12.447 -17.114,-25.908 -17.114,-40.374c-0.224,-8.055 -0.152,-16.046 0.966,-23.825c4.342,-27.598 23.222,-38.843 42.128,-37.854l0,16.868c-11.052,-2.069 -22.1,6.49 -23.195,31.3l0,11.972c0,6.438 1.478,12.576 4.429,18.361c4.831,8.483 11.086,14.534 18.766,18.137l0,21.048Zm-18.387,52.881c-0.216,-0.008 -0.432,-0.015 -0.644,-0.031c-5.077,-0.348 -9.135,-4.52 -9.233,-9.673c-0.095,-5.308 4.114,-9.782 9.392,-10.078c6.616,-0.883 13.295,-1.546 18.872,-3.861l0,21.411c-5.808,1.819 -11.919,2.633 -18.387,2.232m18.387,-23.643c1.399,-0.579 2.725,-1.258 3.971,-2.076c9.904,-6.543 15.857,-15.428 18.141,-24.734l0,-0.015c0.019,-0.091 -3.489,0.068 -4.088,0.049l-2.986,0c-4.667,0 -9.68,-0.81 -15.038,-2.462l0,-21.048c5.65,2.653 12.072,3.975 19.267,3.975c1.322,-0 3.99,0.159 3.918,0.023l-0,-50.563l0.007,-0.42c-1,-17.884 -12.098,-30.705 -23.192,-32.785l0,-16.868c20.044,1.049 40.117,15.845 42.928,39.48c0.099,0.534 0.156,1.095 0.159,1.682c0.216,2.618 0.224,5.338 0.004,8.161l0,62.596c0,15.519 -6.43,29.689 -19.217,42.598c-7.407,6.286 -15.307,11.136 -23.874,13.818l0,-21.411Z" style="fill:#014574;"/></g></g></svg>