<svg width="222" height="202" viewBox="0 0 222 202" fill="none" xmlns="http://www.w3.org/2000/svg">
<path d="M128.45 80.1318C129.29 69.6818 129.74 59.0518 129 48.5918C128.44 40.6718 126.02 32.9518 122.54 25.8418C120.86 22.4118 118.92 19.1018 116.8 15.9218C114.98 13.1918 112.51 10.2418 113.56 6.73175C113.66 6.38175 113.79 6.03175 113.94 5.68175C114.39 4.63175 116.89 1.43175 115.67 0.391753C114.86 -0.668246 111.35 0.391754 105.76 3.95175C100.05 7.33175 93.7899 11.9018 86.9099 17.9918C80.1199 23.7518 74.5499 29.2018 70.6699 34.0518C66.7999 38.8918 65.3399 41.8018 66.2099 42.8218C66.8599 43.5918 68.4599 43.0618 69.2299 42.7818C70.4699 42.3318 71.5799 41.6518 72.7999 41.1518C74.7599 40.3318 75.2399 40.2418 76.5899 40.1218C94.1499 38.4918 91.2699 76.7918 90.9999 80.0318C90.9899 80.1818 91.0299 80.3118 91.1299 80.4218C92.3099 81.7818 100.32 90.9118 105.48 95.7418C103.7 96.7218 103.7 99.2818 105.48 100.252L105.72 100.382C105.96 100.512 103.16 133.332 103.16 133.332C103.16 133.332 107.08 133.582 109.08 133.582C111.35 133.582 115.8 133.272 115.8 133.272C115.8 133.272 111.9 100.492 112.11 100.382L112.35 100.252C114.13 99.2718 114.13 96.7118 112.35 95.7418C117.68 90.8518 127.05 81.6918 128.31 80.4618C128.4 80.3718 128.46 80.2518 128.47 80.1218L128.45 80.1318ZM110.85 87.5818L108.77 87.8018C108.83 84.0318 108.68 79.1818 107.91 73.6018C106.1 60.4618 101.9 50.9218 100.07 47.0718C97.7499 42.2018 95.2299 38.0618 92.8599 34.6418C94.9999 33.2318 97.1399 31.8218 99.2899 30.4118C102.68 36.2918 104.76 41.4718 106.04 45.2118C109.88 56.3918 110.46 65.8418 110.86 73.0418C111.19 79.0618 111.05 84.0718 110.86 87.5818H110.85ZM92.0599 23.1218C79.9899 33.5818 69.5299 41.5818 68.5699 40.5818C67.3599 39.3318 75.5499 29.7118 87.6199 19.2618C99.6899 8.80175 111.36 1.24175 112.27 2.29175C113.17 3.34175 104.13 12.6618 92.0599 23.1218Z" fill="#171717"/>
<path d="M83.3999 87.27C83.3999 87.27 62.2799 97.12 47.8999 105.63C59.5899 119.54 76.0899 129.27 94.8399 132.24C92.0599 126.51 89.3499 119.76 87.2599 112C84.7199 102.59 83.4099 87.27 83.4099 87.27H83.3999Z" fill="#171717"/>
<path d="M134.06 85.81C134.56 92.75 134.54 101.68 132.8 111.87C131.47 119.65 129.43 126.47 127.23 132.25C145.92 127.43 161.87 115.79 172.26 100.14C156.95 93.32 134.05 85.82 134.05 85.82L134.06 85.81Z" fill="#171717"/>
<path d="M26.33 169.45C27.86 169.45 29.18 169.77 30.31 170.41C31.44 171.05 32.31 172.03 32.93 173.36C33.55 174.69 33.87 176.38 33.87 178.45V190.28H27.73V179.46C27.73 177.73 27.48 176.4 26.99 175.44C26.5 174.49 25.54 174.01 24.13 174.01C23.34 174.01 22.62 174.22 21.96 174.64C21.3 175.06 20.78 175.67 20.39 176.48C20 177.29 19.81 178.28 19.81 179.46V190.28H14.07V179.46C14.07 177.73 13.78 176.4 13.21 175.44C12.63 174.49 11.71 174.01 10.45 174.01C9.64 174.01 8.92 174.22 8.27 174.63C7.62 175.04 7.11 175.65 6.73 176.45C6.35 177.26 6.16 178.26 6.16 179.46V190.28H0V170.04H6.16V173C6.36 172.49 6.78 171.96 7.43 171.42C8.08 170.88 8.88 170.41 9.85 170.03C10.81 169.64 11.86 169.45 12.99 169.45C14.21 169.45 15.22 169.66 16.02 170.07C16.83 170.48 17.48 171.01 17.98 171.65C18.48 172.29 18.86 172.95 19.13 173.62C19.36 172.98 19.81 172.34 20.49 171.7C21.16 171.06 22.01 170.53 23.02 170.1C24.03 169.67 25.14 169.46 26.34 169.46L26.33 169.45Z" fill="#171717"/>
<path d="M52.7701 190.28V186.73C52.6401 187.11 52.2701 187.63 51.6601 188.28C51.0501 188.94 50.2301 189.53 49.1901 190.07C48.1501 190.6 46.9501 190.87 45.5701 190.87C43.6501 190.87 41.9401 190.41 40.4401 189.48C38.9401 188.55 37.7701 187.28 36.9201 185.67C36.0701 184.06 35.6401 182.23 35.6401 180.17C35.6401 178.11 36.0701 176.28 36.9201 174.67C37.7701 173.06 38.9501 171.79 40.4401 170.85C41.9401 169.91 43.6401 169.45 45.5701 169.45C46.9201 169.45 48.0901 169.68 49.0901 170.13C50.0901 170.58 50.9001 171.11 51.5201 171.72C52.1401 172.33 52.5301 172.86 52.7201 173.32V170.04H58.8801V190.28H52.7701ZM41.7601 180.17C41.7601 181.3 42.0101 182.31 42.5201 183.18C43.0301 184.05 43.7001 184.72 44.5401 185.2C45.3801 185.68 46.2901 185.91 47.2801 185.91C48.3301 185.91 49.2601 185.67 50.0701 185.18C50.8801 184.7 51.5101 184.02 51.9801 183.15C52.4501 182.28 52.6801 181.29 52.6801 180.17C52.6801 179.05 52.4501 178.06 51.9801 177.19C51.5101 176.32 50.8701 175.64 50.0701 175.14C49.2601 174.65 48.3401 174.4 47.2801 174.4C46.2901 174.4 45.3801 174.64 44.5401 175.13C43.7001 175.61 43.0301 176.29 42.5201 177.16C42.0101 178.03 41.7601 179.03 41.7601 180.17Z" fill="#171717"/>
<path d="M74.9599 169.45C76.3399 169.45 77.6899 169.73 78.9999 170.3C80.3099 170.87 81.3999 171.77 82.2399 173C83.0899 174.23 83.5099 175.84 83.5099 177.83V190.28H77.2699V178.89C77.2699 177.23 76.8799 176 76.0899 175.19C75.2999 174.39 74.2699 173.98 73.0099 173.98C72.1699 173.98 71.3799 174.21 70.6299 174.66C69.8799 175.11 69.2699 175.74 68.8099 176.55C68.3399 177.36 68.1099 178.27 68.1099 179.29V190.28H61.8999V170.04H68.1099V173.27C68.2699 172.71 68.6799 172.14 69.3299 171.54C69.9799 170.95 70.7999 170.45 71.7799 170.05C72.7699 169.65 73.8299 169.45 74.9599 169.45Z" fill="#171717"/>
<path d="M102.59 190.28V186.73C102.33 187.32 101.84 187.94 101.14 188.58C100.43 189.22 99.57 189.76 98.54 190.21C97.51 190.65 96.39 190.88 95.18 190.88C93.26 190.88 91.57 190.42 90.11 189.49C88.66 188.56 87.52 187.29 86.71 185.68C85.9 184.07 85.49 182.24 85.49 180.18C85.49 178.12 85.9 176.29 86.71 174.68C87.52 173.07 88.66 171.8 90.11 170.86C91.56 169.92 93.25 169.46 95.18 169.46C96.54 169.46 97.76 169.68 98.82 170.13C99.88 170.57 100.73 171.1 101.37 171.71C102.01 172.32 102.4 172.86 102.53 173.34V156.38H108.77V190.3H102.61L102.59 190.28ZM92.33 183.18C92.81 184.05 93.46 184.72 94.26 185.2C95.06 185.68 95.96 185.91 96.95 185.91C98 185.91 98.95 185.67 99.78 185.18C100.62 184.7 101.28 184.02 101.78 183.15C102.27 182.28 102.52 181.29 102.52 180.17C102.52 179.05 102.27 178.06 101.78 177.19C101.29 176.32 100.62 175.64 99.78 175.14C98.94 174.65 98 174.4 96.95 174.4C95.96 174.4 95.07 174.64 94.26 175.13C93.45 175.61 92.81 176.29 92.33 177.16C91.84 178.03 91.6 179.03 91.6 180.17C91.6 181.31 91.84 182.31 92.33 183.18Z" fill="#171717"/>
<path d="M127.22 190.28V186.73C127.09 187.11 126.72 187.63 126.11 188.28C125.5 188.94 124.68 189.53 123.64 190.07C122.6 190.6 121.4 190.87 120.02 190.87C118.1 190.87 116.39 190.41 114.89 189.48C113.39 188.55 112.22 187.28 111.37 185.67C110.52 184.06 110.09 182.23 110.09 180.17C110.09 178.11 110.52 176.28 111.37 174.67C112.22 173.06 113.4 171.79 114.89 170.85C116.39 169.91 118.09 169.45 120.02 169.45C121.37 169.45 122.54 169.68 123.54 170.13C124.54 170.58 125.35 171.11 125.97 171.72C126.59 172.33 126.98 172.86 127.17 173.32V170.04H133.33V190.28H127.22ZM116.2 180.17C116.2 181.3 116.45 182.31 116.96 183.18C117.47 184.05 118.14 184.72 118.98 185.2C119.82 185.68 120.73 185.91 121.72 185.91C122.77 185.91 123.7 185.67 124.51 185.18C125.32 184.7 125.95 184.02 126.42 183.15C126.89 182.28 127.12 181.29 127.12 180.17C127.12 179.05 126.89 178.06 126.42 177.19C125.95 176.32 125.31 175.64 124.51 175.14C123.7 174.65 122.78 174.4 121.72 174.4C120.73 174.4 119.82 174.64 118.98 175.13C118.14 175.61 117.47 176.29 116.96 177.16C116.45 178.03 116.2 179.03 116.2 180.17Z" fill="#171717"/>
<path d="M142.8 190.28H136.56V156.36H142.8V190.28Z" fill="#171717"/>
<path d="M145.98 201.12C144.65 201.12 143.55 200.98 142.68 200.71C141.81 200.44 141.16 200.16 140.73 199.88L142.75 195.25C143 195.43 143.26 195.57 143.55 195.68C143.84 195.79 144.21 195.84 144.67 195.84C145.21 195.84 145.66 195.68 146 195.35C146.34 195.02 146.59 194.55 146.74 193.95C146.89 193.34 146.96 192.62 146.96 191.78V170.04H153.17V192.89C153.17 194.47 152.93 195.88 152.44 197.13C151.95 198.38 151.19 199.36 150.14 200.06C149.09 200.77 147.7 201.12 145.97 201.12H145.98ZM150.17 164.79C149.15 164.79 148.28 164.43 147.57 163.71C146.86 162.99 146.5 162.12 146.5 161.12C146.5 160.46 146.66 159.85 146.99 159.3C147.32 158.74 147.76 158.29 148.32 157.94C148.88 157.6 149.49 157.42 150.17 157.42C150.85 157.42 151.46 157.59 152.02 157.93C152.58 158.27 153.02 158.72 153.35 159.27C153.68 159.83 153.84 160.44 153.84 161.12C153.84 162.12 153.48 162.99 152.77 163.71C152.06 164.43 151.19 164.79 150.17 164.79Z" fill="#171717"/>
<path d="M172.79 190.28V186.73C172.66 187.11 172.29 187.63 171.68 188.28C171.07 188.94 170.25 189.53 169.21 190.07C168.17 190.6 166.97 190.87 165.59 190.87C163.67 190.87 161.96 190.41 160.46 189.48C158.96 188.55 157.79 187.28 156.94 185.67C156.09 184.06 155.66 182.23 155.66 180.17C155.66 178.11 156.09 176.28 156.94 174.67C157.79 173.06 158.97 171.79 160.46 170.85C161.96 169.91 163.66 169.45 165.59 169.45C166.94 169.45 168.11 169.68 169.11 170.13C170.11 170.58 170.92 171.11 171.54 171.72C172.16 172.33 172.55 172.86 172.74 173.32V170.04H178.9V190.28H172.79ZM161.78 180.17C161.78 181.3 162.03 182.31 162.54 183.18C163.05 184.05 163.72 184.72 164.56 185.2C165.4 185.68 166.31 185.91 167.3 185.91C168.35 185.91 169.28 185.67 170.09 185.18C170.9 184.7 171.53 184.02 172 183.15C172.47 182.28 172.7 181.29 172.7 180.17C172.7 179.05 172.47 178.06 172 177.19C171.53 176.32 170.89 175.64 170.09 175.14C169.28 174.65 168.36 174.4 167.3 174.4C166.31 174.4 165.4 174.64 164.56 175.13C163.72 175.61 163.05 176.29 162.54 177.16C162.03 178.03 161.78 179.03 161.78 180.17Z" fill="#171717"/>
<path d="M181.45 170.04H200.55L189.65 185.84H199.86V190.28H179.92L190.82 174.45H181.45V170.04Z" fill="#171717"/>
<path d="M202.08 170.04H221.18L210.28 185.84H220.49V190.28H200.55L211.45 174.45H202.08V170.04Z" fill="#171717"/>
</svg>
