<svg width="500" height="169" viewBox="0 0 500 169" fill="none" xmlns="http://www.w3.org/2000/svg">
    <path
        d="M53.6091 50.2111C34.0722 45.2058 29.2236 42.7833 29.2236 35.3573V35.0333C29.2236 29.5439 34.2288 25.1847 43.7552 25.1847C53.2816 25.1847 63.1302 29.3837 73.1407 36.3256L86.0562 17.5967C74.1642 8.06342 59.317 2.98108 44.0774 3.22703C20.9894 3.22703 4.52111 16.7886 4.52111 37.2939V37.6178C4.52111 60.0597 19.213 66.3573 41.9788 72.1706C60.8697 77.0122 64.7446 80.2428 64.7446 86.5386V86.8625C64.7446 93.4822 58.6091 97.5174 48.4365 97.5174C35.5211 97.5174 24.8644 92.19 14.6919 83.7938L0 101.394C13.221 113.106 30.2899 119.543 47.9524 119.477C72.338 119.477 89.4471 106.884 89.4471 84.44V84.116C89.4471 64.4206 76.5316 56.1847 53.6038 50.2111"
        fill="#FF8A00"></path>
    <path d="M98.0049 127.015L122.547 139.244V0H98.0049V127.015Z" fill="#FF8A00"></path>
    <path d="M137.716 145.255L162.259 157.577V62.5945H137.716V145.255Z" fill="#FF8A00"></path>
    <path d="M162.903 31.2706H137.07V53.0681H162.903V31.2706Z" fill="#FF8A00"></path>
    <path
        d="M325.028 49.403C325.028 63.9347 315.34 73.2991 303.877 73.2991C292.414 73.2991 282.887 63.7727 282.887 49.403V49.0809C282.887 34.7112 292.412 25.1847 303.877 25.1847C315.342 25.1847 325.028 34.7112 325.028 49.0809V49.403ZM326.312 77.3486C326.312 60.1879 336.004 42.1283 348.439 36.2508C344.06 14.7132 327.479 4.36621 310.169 4.36621C297.416 4.36621 289.181 10.3398 283.206 18.412V5.98064H258.662V38.4295C266.918 45.9819 272.46 60.3107 272.46 75.8303V74.7623C272.46 90.3637 266.943 104.548 258.662 112.097V131.896L283.203 118.352V81.2111C286.376 85.3205 290.467 88.6294 295.15 90.8725C299.832 93.1157 304.975 94.2308 310.166 94.1283C316.295 94.1441 322.338 92.6883 327.787 89.8831C326.793 85.8864 326.296 81.7822 326.308 77.6636L326.312 77.3486Z"
        fill="#FF8A00"></path>
    <path
        d="M242.225 74.7588C242.225 89.2905 232.537 98.6549 221.074 98.6549C209.611 98.6549 200.084 89.1285 200.084 74.7588V74.4366C200.084 60.0669 209.611 50.5405 221.074 50.5405C232.537 50.5405 242.225 60.0669 242.225 74.4366V74.7588ZM266.766 74.7588V74.4366C266.766 58.9171 261.221 47.1746 252.965 39.6222C245.976 33.2298 236.843 29.6935 227.371 29.7131C214.614 29.7131 206.38 35.6867 200.407 43.7588V31.3257H175.864V161.563L200.407 150.564V106.56C203.58 110.67 207.672 113.979 212.354 116.222C217.037 118.465 222.18 119.58 227.371 119.477C236.827 119.53 245.959 116.037 252.965 109.687C261.257 102.138 266.766 90.3567 266.766 74.757"
        fill="#FF8A00"></path>
    <path
        d="M392.515 70.7182H355.543C357.482 59.5774 364.103 52.3115 374.274 52.3115C384.598 52.3115 391.064 59.7376 392.519 70.7182H392.515ZM416.415 79.9207V79.5985C416.415 55.0563 403.175 32.6072 374.274 32.6072C367.052 32.5535 359.938 34.3587 353.616 37.8493C339.985 45.4444 331.487 60.4923 331.487 77.653V77.9769C331.475 82.0956 331.972 86.2 332.968 90.1964C337.925 109.904 354.929 122.7 376.696 122.7C392.36 122.7 403.982 116.565 412.056 106.554L398.008 94.1213C391.226 100.419 385.253 103.002 377.019 103.002C366.04 103.002 358.29 97.1899 355.867 86.0491H416.091C416.253 83.7885 416.415 82.3361 416.415 79.9135"
        fill="#FF8A00"></path>
    <path
        d="M470.617 29.7059C458.182 29.7059 450.916 36.3256 445.266 43.5897V31.3275H420.724V108.813L445.266 117.87V69.5862C445.266 57.9612 451.242 51.9876 460.604 51.9876C469.967 51.9876 475.458 57.9612 475.458 69.5862V126.912L500 138.556V61.8362C500 41.977 489.184 29.7059 470.617 29.7059Z"
        fill="#FF8A00"></path>
    <path
        d="M258.743 168.17V147.729H258.77L268.571 161.618L278.502 147.729H278.557V168.17H275.668V156.066L268.555 166.126H268.5L261.55 156.477V168.17H258.743Z"
        fill="#FF8A00"></path>
    <path
        d="M295.718 168.17L304.412 147.593H304.575L313.27 168.17H309.945L304.371 154.044L298.58 168.17H295.718ZM300.349 161.866H308.244L308.852 163.992H299.741L300.349 161.866Z"
        fill="#FF8A00"></path>
    <path
        d="M347.697 168.851L332.462 153.725L333.307 153.998L333.388 168.17H330.445V147.756H330.581L344.942 162.222L344.89 148.383H347.779V168.851H347.697Z"
        fill="#FF8A00"></path>
    <path
        d="M366.988 168.17V148.383H372.493C374.456 148.383 376.127 148.683 377.508 149.283C378.889 149.882 379.997 150.673 380.833 151.654C381.687 152.635 382.305 153.725 382.686 154.924C383.086 156.123 383.286 157.332 383.286 158.549C383.286 160.021 383.022 161.347 382.496 162.528C381.969 163.709 381.251 164.727 380.342 165.581C379.434 166.416 378.389 167.061 377.208 167.516C376.027 167.952 374.774 168.17 373.447 168.17H366.988ZM369.904 165.363H372.902C373.974 165.363 374.955 165.208 375.846 164.899C376.754 164.59 377.535 164.136 378.189 163.537C378.862 162.937 379.379 162.201 379.743 161.329C380.106 160.457 380.288 159.458 380.288 158.331C380.288 157.114 380.079 156.06 379.661 155.17C379.261 154.261 378.725 153.516 378.053 152.935C377.381 152.335 376.627 151.899 375.791 151.627C374.973 151.336 374.138 151.19 373.284 151.19H369.904V165.363Z"
        fill="#FF8A00"></path>
    <path
        d="M398.081 168.17L406.775 147.593H406.938L415.632 168.17H412.307L405.984 152.144L408.083 150.754L400.942 168.17H398.081ZM403.368 160.757H410.4L411.408 163.264H402.496L403.368 160.757Z"
        fill="#FF8A00"></path>
    <path d="M432.808 148.383H435.724V165.363H445.617V168.17H432.808V148.383Z" fill="#FF8A00"></path>
</svg>
